<svg xmlns="http://www.w3.org/2000/svg" viewBox="130 100 1300 430">
    <path fill="#ffffff" d="m821.27,242.86c-40.31,0-72.67,28.54-72.67,70.9s32.36,70.91,72.67,70.91,72.67-28.54,72.67-70.91-32.66-70.9-72.67-70.9Zm34.97,70.91c0,16.9-11.99,31-27.92,34.26-2.28.47-4.63.71-7.05.71s-4.77-.24-7.05-.71c-15.93-3.26-27.92-17.36-27.92-34.26h0c0-16.9,11.99-31,27.92-34.26,2.28-.47,4.64-.71,7.05-.71s4.77.24,7.05.71c15.94,3.26,27.92,17.36,27.92,34.26h0Z"/>
    <path fill="#ffffff" d="m635.69,244.25h-23.8l-16.77,50.31c-2.65,7.95-5,17.36-6.76,25.89h-.59c-1.77-8.53-3.53-17.65-6.18-25.89l-16.77-50.31h-32.66l-16.77,50.61c-2.65,7.65-5,17.36-6.47,25.59h-.59c-1.47-8.53-4.11-17.94-6.47-25.59l-16.47-50.61h-39.43l46.49,134.46h28.24l17.95-53.26c2.65-7.64,5.3-17.36,7.35-27.36h.59c2.65,10,5.3,19.42,7.94,27.66l17.95,52.96h29.72l33.51-96.94v-37.52Z"/>
    <path fill="#ffffff" d="m754.85,209.61c-5-2.06-12.07-3.53-17.36-3.53-15.89,0-24.12,9.41-24.12,28.54v12.65h38.25l-8.53,35.31h-29.71v97.98h-41.78v-97.98h-20.3v-35.31h20.3v-15.59c0-40.6,26.18-60.61,59.72-60.61,12.36,0,24.72,1.47,31.48,4.41l-7.94,34.13Z"/>
    <path fill="#ffffff" d="m212.82,171.07c-33.56,0-59.69,20.01-59.69,60.61v15.58h-20.33v35.32h20.33v98.01h41.77v-98.01h19.68v-35.32h-19.68v-12.64c0-18.25,7.5-27.7,22.09-28.48h.26v-35c-1.5-.07-2.93-.07-4.43-.07Z"/>
    <path fill="#ffffff" d="m997.79,245.95c-2.99-.68-6.62-1.03-9.75-1.03-17.94,0-33.54,11.18-37.96,32.07h-.29v-29.71h-42.66v133.28h43.25v-62.08c0-21.18,12.65-28.54,26.48-28.54,4.42,0,10.3,1.77,12.95,3.24,0,0,4.3,2.16,7.98,5.13v-52.36Z"/>
    <path fill="#ffffff" d="m1292.58,294.94c-8.24-2.06-11.77-4.71-11.77-9.71,0-5.3,4.71-8.53,11.77-8.53,10.6,0,21.18,3.83,27.66,7.35l7.35-31.78c-6.76-3.53-22.95-7.94-39.42-7.94-28.83,0-50.02,16.77-50.02,42.95,0,23.25,15.3,36.19,40.9,43.55,7.65,2.35,12.06,4.71,12.06,10.29,0,5-5,9.12-12.94,9.12-14.72,0-30.02-6.18-41.78-14.41v.04s0,35.78,0,35.78l3.83,2.42c10.88,5.59,24.13,9.42,42.37,9.42,35.89,0,52.37-20.6,52.37-43.25s-12.36-37.36-42.37-45.31Z"/>
    <path fill="#ffffff" d="m1177.55,380.56v-81.79c0-9.71-4.71-18.24-18.83-18.24s-20.01,8.24-20.01,18.83v81.2h-43.25v-81.79c0-9.71-4.71-18.24-18.83-18.24s-20.01,8.24-20.01,18.83v81.2h-43.25v-133.28h40.01v17.95h.3c5.29-14.12,18.53-22.07,39.42-22.07,19.13,0,33.54,7.65,39.43,21.77,5.59-12.95,21.18-21.77,41.19-21.77,30.31,0,47.07,16.48,47.07,44.73v92.68h-43.25Z"/>
    <circle fill="#00bfde" cx="376.41" cy="310.75" r="34.97"/>
    <path fill="#ffffff" d="m296.18,348.02l-.07-.14c-.51-.07-1.95-.14-2.16-.14-6.42-.58-11.18-2.67-14.14-6.35-.43-.36-.65-.79-.94-1.23-1.59-2.6-2.38-5.92-2.38-9.88v-159.15h-42.7v164.42c0,1.88.07,3.75.22,5.55,0,.43.07.87.14,1.3,1.15,13.85,6.35,23.81,14.43,30.3.36.43.72.72,1.08.94,19.33,18.03,52.44,20.99,76.39,9.02-12.98-8.58-23.23-20.49-29.86-34.63Z"/>
    <path fill="#ffffff" d="m376.41,239.84c-40.31,0-72.67,28.54-72.67,70.9s32.36,70.91,72.67,70.91,72.67-28.54,72.67-70.91-32.66-70.9-72.67-70.9Zm-34.97,70.91c0-19.31,15.66-34.97,34.97-34.97s34.97,15.66,34.97,34.97-15.66,34.97-34.97,34.97-34.97-15.66-34.97-34.97Z"/>
    <path fill="#00bfde" d="m1380.76,314.46c-17.98,0-32.6,14.63-32.6,32.61,0,5.38,1.43,10.38,3.75,14.86-50.95,37.93-146.22,98.29-263.29,122.77-46.95,9.81-120.61,19.08-186.55,15.52-49.45-2.64-111.73-13.38-127.61-49.53-9.13-20.79-.38-45.44,17-71.77-5.9-2.41-11.39-5.5-16.32-9.29-20.12,30.88-30.07,60.94-17.91,88.63,20.94,47.67,96.4,61.5,173.35,61.5,62.44,0,125.88-9.11,161.9-16.64,122.04-25.52,220.87-88.76,272.67-127.6,4.66,2.57,9.93,4.16,15.62,4.16,17.98,0,32.61-14.63,32.61-32.61s-14.63-32.61-32.61-32.61Z"/>
    <path fill="#00bfde" d="m878.06,126.16c22.82,6.43,38.02,16.32,43.98,28.59,15.25,31.43-31.49,81.93-76.69,130.78-16.52,17.85-33.2,35.89-47.82,53.82,4.6,4.27,10.3,7.38,16.69,8.69.15.03.31.02.46.05,13.64-16.44,29.13-33.19,44.48-49.77,51.77-55.94,100.67-108.78,79.81-151.77-8.48-17.49-27.26-30.44-55.8-38.48-45.9-12.94-114.06-11.83-186.96,3.04-79.44,16.2-158.14,47.51-221.6,88.14-22.46,14.37-44,30.55-64.35,48.2,5.95,2.88,11.39,6.55,16.23,10.9,18.51-15.75,38-30.28,58.26-43.25,133.83-85.69,308.38-112.86,393.31-88.91Z"/>
</svg>
